<svg preserveAspectRatio="none" width="100%" height="100%" overflow="visible" style="display: block;" viewBox="0 0 24 24" fill="none" xmlns="http://www.w3.org/2000/svg">
<g id="SVG">
<path id="Vector" d="M14.106 5.553C14.6688 5.83424 15.3312 5.83424 15.894 5.553L19.553 3.723C19.8632 3.56798 20.2316 3.58476 20.5265 3.76733C20.8213 3.9499 21.0005 4.2722 21 4.619V17.383C20.9998 17.7617 20.7857 18.1077 20.447 18.277L15.894 20.554C15.3312 20.8352 14.6688 20.8352 14.106 20.554L9.894 18.448C9.33118 18.1668 8.66882 18.1668 8.106 18.448L4.447 20.278C4.13662 20.4331 3.76802 20.4162 3.47312 20.2334C3.17821 20.0506 2.99914 19.728 3 19.381V6.618C3.0002 6.23933 3.21427 5.89326 3.553 5.724L8.106 3.447C8.66882 3.16576 9.33118 3.16576 9.894 3.447L14.106 5.553M15 5.764V20.764M9 3.236V18.236" stroke="var(--stroke-0, #4B8BFF)" stroke-width="2" stroke-linecap="round" stroke-linejoin="round"/>
</g>
</svg>
