<svg preserveAspectRatio="none" width="100%" height="100%" overflow="visible" style="display: block;" viewBox="0 0 21.2117 21" fill="none" xmlns="http://www.w3.org/2000/svg">
<g id="Group">
<path id="Vector" d="M8.92573 8V8.2C10.2791 8.72047 11.0666 10.1344 10.7964 11.5591C10.5262 12.9837 9.27572 14.0112 7.82573 14H3.92573C2.49411 13.9644 1.28728 12.9219 1.04396 11.5106C0.800648 10.0994 1.5887 8.71297 2.92573 8.2V8C2.92573 6.34425 4.26998 5 5.92573 5C7.58147 5 8.92573 6.34425 8.92573 8M5.92573 14V20M11.9257 17V20" stroke="var(--stroke-0, #4B8BFF)" stroke-width="2" stroke-linecap="round" stroke-linejoin="round"/>
<path id="Vector_2" d="M10.9257 17H19.2257C19.6258 16.9944 19.984 16.7508 20.1364 16.3808C20.2887 16.0109 20.2058 15.5857 19.9257 15.3L16.9257 12H17.2257C17.6258 11.9944 17.984 11.7508 18.1364 11.3808C18.2887 11.0109 18.2058 10.5857 17.9257 10.3L14.9257 7H15.1257C15.5441 7.03774 15.9415 6.80996 16.1204 6.42984C16.2993 6.04973 16.2215 5.59834 15.9257 5.3L11.9257 1L10.5257 2.5" stroke="var(--stroke-0, #4B8BFF)" stroke-width="2" stroke-linecap="round" stroke-linejoin="round"/>
</g>
</svg>
