<svg preserveAspectRatio="none" width="100%" height="100%" overflow="visible" style="display: block;" viewBox="0 0 22.0047 21" fill="none" xmlns="http://www.w3.org/2000/svg">
<g id="Group">
<path id="Vector" d="M14.001 20V15C14.001 14.4481 13.553 14 13.001 14H9.00104C8.44913 14 8.00104 14.4481 8.00104 15V20M16.775 9.31C16.3419 8.89539 15.6591 8.89539 15.226 9.31C14.2602 10.2313 12.7409 10.2313 11.775 9.31C11.3421 8.89603 10.66 8.89603 10.227 9.31C9.26103 10.2319 7.74105 10.2319 6.77504 9.31C6.34194 8.89539 5.65914 8.89539 5.22604 9.31C4.29545 10.198 2.84287 10.235 1.86835 9.39538C0.893822 8.55579 0.715455 7.11373 1.45604 6.062L4.34504 1.878C4.71724 1.32878 5.33758 0.999878 6.00104 1H16.001C16.6625 0.999746 17.2813 1.32656 17.654 1.873L20.549 6.065C21.2898 7.11761 21.1103 8.56066 20.1342 9.39969C19.1581 10.2387 17.7045 10.1995 16.775 9.309" stroke="var(--stroke-0, #4B8BFF)" stroke-width="2" stroke-linecap="round" stroke-linejoin="round"/>
<path id="Vector_2" d="M3.00104 9.95V18C3.00104 19.1038 3.89721 20 5.00104 20H17.001C18.1049 20 19.001 19.1038 19.001 18V9.95" stroke="var(--stroke-0, #4B8BFF)" stroke-width="2" stroke-linecap="round" stroke-linejoin="round"/>
</g>
</svg>
