<svg preserveAspectRatio="none" width="100%" height="100%" overflow="visible" style="display: block;" viewBox="0 0 20 20" fill="none" xmlns="http://www.w3.org/2000/svg">
<g id="Group">
<path id="Vector" d="M2 1H7C7.55192 1 8 1.44808 8 2V9C8 9.55192 7.55192 10 7 10H2C1.44808 10 1 9.55192 1 9V2C1 1.44808 1.44808 1 2 1V1" stroke="var(--stroke-0, #4B8BFF)" stroke-width="2" stroke-linecap="round" stroke-linejoin="round"/>
<path id="Vector_2" d="M13 1H18C18.5519 1 19 1.44808 19 2V5C19 5.55192 18.5519 6 18 6H13C12.4481 6 12 5.55192 12 5V2C12 1.44808 12.4481 1 13 1V1" stroke="var(--stroke-0, #4B8BFF)" stroke-width="2" stroke-linecap="round" stroke-linejoin="round"/>
<path id="Vector_3" d="M13 10H18C18.5519 10 19 10.4481 19 11V18C19 18.5519 18.5519 19 18 19H13C12.4481 19 12 18.5519 12 18V11C12 10.4481 12.4481 10 13 10V10" stroke="var(--stroke-0, #4B8BFF)" stroke-width="2" stroke-linecap="round" stroke-linejoin="round"/>
<path id="Vector_4" d="M2 14H7C7.55192 14 8 14.4481 8 15V18C8 18.5519 7.55192 19 7 19H2C1.44808 19 1 18.5519 1 18V15C1 14.4481 1.44808 14 2 14V14" stroke="var(--stroke-0, #4B8BFF)" stroke-width="2" stroke-linecap="round" stroke-linejoin="round"/>
</g>
</svg>
