<svg preserveAspectRatio="none" width="100%" height="100%" overflow="visible" style="display: block;" viewBox="0 0 22.0014 22.0073" fill="none" xmlns="http://www.w3.org/2000/svg">
<g id="Group">
<path id="Vector" d="M18.0692 3.93298C14.8675 0.727887 9.91112 0.0755173 5.98915 2.34298M2.99915 5.00298H3.00915M1.28915 8.62298C0.260167 12.8142 2.0361 17.1927 5.69398 19.483C9.35187 21.7732 14.0663 21.4584 17.3873 18.7022C20.7082 15.946 21.8862 11.3702 20.3092 7.35298" stroke="var(--stroke-0, white)" stroke-width="2" stroke-linecap="round" stroke-linejoin="round"/>
<path id="Vector_2" d="M15.2392 6.76298C13.6712 5.1859 11.3596 4.60543 9.23255 5.25468C7.10555 5.90393 5.51212 7.6764 5.09217 9.86027C4.67222 12.0441 5.49464 14.2812 7.22915 15.673M10.9992 17.003H11.0092M16.9892 10.663C17.0995 12.5931 16.2731 14.4582 14.7692 15.673" stroke="var(--stroke-0, white)" stroke-width="2" stroke-linecap="round" stroke-linejoin="round"/>
<path id="Vector_3" d="M8.99915 11.003C8.99915 12.1068 9.89532 13.003 10.9992 13.003C12.103 13.003 12.9992 12.1068 12.9992 11.003C12.9992 9.89915 12.103 9.00298 10.9992 9.00298C9.89532 9.00298 8.99915 9.89915 8.99915 11.003V11.003" stroke="var(--stroke-0, white)" stroke-width="2" stroke-linecap="round" stroke-linejoin="round"/>
<path id="Vector_4" d="M12.4092 9.59298L18.0692 3.93298" stroke="var(--stroke-0, white)" stroke-width="2" stroke-linecap="round" stroke-linejoin="round"/>
</g>
</svg>
