<svg preserveAspectRatio="none" width="100%" height="100%" overflow="visible" style="display: block;" viewBox="0 0 14.1412 14" fill="none" xmlns="http://www.w3.org/2000/svg">
<g id="Group">
<path id="Vector" d="M5.95049 5.33333V5.46667C6.85276 5.81364 7.37772 6.7563 7.19759 7.70606C7.01746 8.65582 6.18381 9.34081 5.21715 9.33333H2.61715C1.66274 9.30959 0.858187 8.61459 0.695976 7.67377C0.533765 6.73294 1.05913 5.80865 1.95049 5.46667V5.33333C1.95049 4.2295 2.84666 3.33333 3.95049 3.33333C5.05432 3.33333 5.95049 4.2295 5.95049 5.33333M3.95049 9.33333V13.3333M7.95049 11.3333V13.3333" stroke="var(--stroke-0, #4A2A00)" stroke-width="1.33333" stroke-linecap="round" stroke-linejoin="round"/>
<path id="Vector_2" d="M7.28382 11.3333H12.8172C13.0839 11.3296 13.3227 11.1672 13.4242 10.9206C13.5258 10.6739 13.4706 10.3905 13.2838 10.2L11.2838 8H11.4838C11.7505 7.99625 11.9893 7.83388 12.0909 7.58723C12.1925 7.34058 12.1372 7.05713 11.9505 6.86667L9.95049 4.66667H10.0838C10.3628 4.69183 10.6277 4.53997 10.7469 4.28656C10.8662 4.03315 10.8143 3.73223 10.6172 3.53333L7.95049 0.666667L7.01715 1.66667" stroke="var(--stroke-0, #4A2A00)" stroke-width="1.33333" stroke-linecap="round" stroke-linejoin="round"/>
</g>
</svg>
