<svg preserveAspectRatio="none" width="100%" height="100%" overflow="visible" style="display: block;" viewBox="0 0 16 16" fill="none" xmlns="http://www.w3.org/2000/svg">
<g id="SVG">
<path id="Vector" d="M10.6667 1.33333L9.13333 2.86667C8.37105 3.64435 8.37105 4.88898 9.13333 5.66667L10.3333 6.86667C11.111 7.62895 12.3556 7.62895 13.1333 6.86667L14.6667 5.33333M10 10L2.2 2.2C1.66249 2.72665 1.35959 3.44749 1.35959 4.2C1.35959 4.95251 1.66249 5.67335 2.2 6.2L7.06667 11.0667C7.53333 11.5333 8.4 11.5333 8.93333 11.0667L10.6667 1.33333M10.6667 1.33333L15.3333 6M2.06667 5.86667L6.33333 1.66667M12.6667 3.33333L8 8" stroke="var(--stroke-0, #4A0F00)" stroke-width="1.33333" stroke-linecap="round" stroke-linejoin="round"/>
</g>
</svg>
