<svg preserveAspectRatio="none" width="100%" height="100%" overflow="visible" style="display: block;" viewBox="0 0 14.6699 14.6699" fill="none" xmlns="http://www.w3.org/2000/svg">
<g id="Group">
<path id="Vector" d="M6.6796 1.21093C6.73853 0.895402 7.01395 0.666667 7.33493 0.666667C7.65591 0.666667 7.93133 0.895402 7.99026 1.21093L8.69093 4.91626C8.79277 5.45539 9.21447 5.87709 9.7536 5.97893L13.4589 6.6796C13.7745 6.73853 14.0032 7.01395 14.0032 7.33493C14.0032 7.65591 13.7745 7.93133 13.4589 7.99026L9.7536 8.69093C9.21447 8.79277 8.79277 9.21447 8.69093 9.7536L7.99026 13.4589C7.93133 13.7745 7.65591 14.0032 7.33493 14.0032C7.01395 14.0032 6.73853 13.7745 6.6796 13.4589L5.97893 9.7536C5.87709 9.21447 5.45539 8.79277 4.91626 8.69093L1.21093 7.99026C0.895402 7.93133 0.666667 7.65591 0.666667 7.33493C0.666667 7.01395 0.895402 6.73853 1.21093 6.6796L4.91626 5.97893C5.45539 5.87709 5.87709 5.45539 5.97893 4.91626L6.6796 1.21093M12.6683 0.668263V3.33493M14.0016 2.0016H11.3349" stroke="var(--stroke-0, #4B8BFF)" stroke-width="1.33333" stroke-linecap="round" stroke-linejoin="round"/>
<path id="Vector_2" d="M0.668263 12.6683C0.668263 13.4041 1.26571 14.0016 2.0016 14.0016C2.73748 14.0016 3.33493 13.4041 3.33493 12.6683C3.33493 11.9324 2.73748 11.3349 2.0016 11.3349C1.26571 11.3349 0.668263 11.9324 0.668263 12.6683H0.668263" stroke="var(--stroke-0, #4B8BFF)" stroke-width="1.33333" stroke-linecap="round" stroke-linejoin="round"/>
</g>
</svg>
