<svg preserveAspectRatio="none" width="100%" height="100%" overflow="visible" style="display: block;" viewBox="0 0 10 14.6667" fill="none" xmlns="http://www.w3.org/2000/svg">
<g id="Group">
<path id="Vector" d="M0.666667 5C0.666667 2.60837 2.60837 0.666667 5 0.666667C7.39163 0.666667 9.33333 2.60837 9.33333 5C9.33333 9 5.33333 9 5.33333 11.6667C5.33333 12.9545 4.2878 14 3 14C1.7122 14 0.666667 12.9545 0.666667 11.6667" stroke="var(--stroke-0, black)" stroke-width="1.33333" stroke-linecap="round" stroke-linejoin="round"/>
<path id="Vector_2" d="M6.66667 5C6.66667 4.08014 5.91986 3.33333 5 3.33333C4.08014 3.33333 3.33333 4.08014 3.33333 5V5.66667C4.06922 5.66667 4.66667 6.26411 4.66667 7C4.66667 7.73589 4.06922 8.33333 3.33333 8.33333" stroke="var(--stroke-0, black)" stroke-width="1.33333" stroke-linecap="round" stroke-linejoin="round"/>
</g>
</svg>
