<svg preserveAspectRatio="none" width="100%" height="100%" overflow="visible" style="display: block;" viewBox="0 0 14.6667 13.3333" fill="none" xmlns="http://www.w3.org/2000/svg">
<g id="Group">
<path id="Vector" d="M10 12.6667V11.3333C10 9.86156 8.80511 8.66667 7.33333 8.66667H3.33333C1.86156 8.66667 0.666667 9.86156 0.666667 11.3333V12.6667M10 0.752C11.1761 1.05691 11.9975 2.11831 11.9975 3.33333C11.9975 4.54835 11.1761 5.60976 10 5.91467M14 12.6667V11.3333C13.9991 10.1181 13.1767 9.05715 12 8.75333" stroke="var(--stroke-0, black)" stroke-width="1.33333" stroke-linecap="round" stroke-linejoin="round"/>
<path id="Vector_2" d="M2.66667 3.33333C2.66667 4.80511 3.86156 6 5.33333 6C6.80511 6 8 4.80511 8 3.33333C8 1.86156 6.80511 0.666667 5.33333 0.666667C3.86156 0.666667 2.66667 1.86156 2.66667 3.33333H2.66667" stroke="var(--stroke-0, black)" stroke-width="1.33333" stroke-linecap="round" stroke-linejoin="round"/>
</g>
</svg>
